HIERARCHY
ROOT Hips
{
	OFFSET 56.877701 -32.693596 43.373703
	CHANNELS 6 Xposition Yposition Zposition Zrotation Xrotation Yrotation
	JOINT Chest
	{
		OFFSET -0.779999 1.005800 5.403099
		CHANNELS 6 Xposition Yposition Zposition Zrotation Xrotation Yrotation
		JOINT Chest2
		{
			OFFSET 0.000000 0.000000 4.236801
			CHANNELS 6 Xposition Yposition Zposition Zrotation Xrotation Yrotation
			JOINT Neck
			{
				OFFSET 0.000000 0.000000 9.874401
				CHANNELS 6 Xposition Yposition Zposition Zrotation Xrotation Yrotation
				JOINT Head
				{
					OFFSET 0.000000 0.000002 2.173893
					CHANNELS 6 Xposition Yposition Zposition Zrotation Xrotation Yrotation
					End Site
					{
						OFFSET 0.000000 0.000000 6.508102
					}
				}
			}
			JOINT LeftCollar
			{
				OFFSET 2.681599 -0.377600 5.432499
				CHANNELS 6 Xposition Yposition Zposition Zrotation Xrotation Yrotation
				JOINT LeftShoulder
				{
					OFFSET 5.161499 0.000000 0.000000
					CHANNELS 6 Xposition Yposition Zposition Zrotation Xrotation Yrotation
					JOINT LeftElbow
					{
						OFFSET 0.000000 0.000000 -10.869099
						CHANNELS 6 Xposition Yposition Zposition Zrotation Xrotation Yrotation
						JOINT LeftWrist
						{
							OFFSET 0.000000 0.000000 -13.344799
							CHANNELS 6 Xposition Yposition Zposition Zrotation Xrotation Yrotation
							End Site
							{
								OFFSET 0.000000 0.000000 -2.173901
							}
						}
					}
				}
			}
			JOINT RightCollar
			{
				OFFSET -2.381901 -1.419600 6.136600
				CHANNELS 6 Xposition Yposition Zposition Zrotation Xrotation Yrotation
				JOINT RightShoulder
				{
					OFFSET -4.550499 0.000000 0.000000
					CHANNELS 6 Xposition Yposition Zposition Zrotation Xrotation Yrotation
					JOINT RightElbow
					{
						OFFSET 0.000000 0.000000 -11.106499
						CHANNELS 6 Xposition Yposition Zposition Zrotation Xrotation Yrotation
						JOINT RightWrist
						{
							OFFSET 0.000000 0.000000 -12.874298
							CHANNELS 6 Xposition Yposition Zposition Zrotation Xrotation Yrotation
							End Site
							{
								OFFSET 0.000000 0.000000 -2.173901
							}
						}
					}
				}
			}
		}
	}
	JOINT LeftHip
	{
		OFFSET 2.431900 0.469601 -2.489399
		CHANNELS 6 Xposition Yposition Zposition Zrotation Xrotation Yrotation
		JOINT LeftKnee
		{
			OFFSET 0.000000 -0.000004 -18.200201
			CHANNELS 6 Xposition Yposition Zposition Zrotation Xrotation Yrotation
			JOINT LeftAnkle
			{
				OFFSET 0.000000 0.000000 -16.279900
				CHANNELS 6 Xposition Yposition Zposition Zrotation Xrotation Yrotation
				End Site
				{
					OFFSET 0.000000 -8.394100 0.000000
				}
			}
		}
	}
	JOINT RightHip
	{
		OFFSET -1.987999 -0.073502 -2.713001
		CHANNELS 6 Xposition Yposition Zposition Zrotation Xrotation Yrotation
		JOINT RightKnee
		{
			OFFSET 0.000000 -0.000004 -19.547802
			CHANNELS 6 Xposition Yposition Zposition Zrotation Xrotation Yrotation
			JOINT RightAnkle
			{
				OFFSET 0.000000 0.000000 -14.881199
				CHANNELS 6 Xposition Yposition Zposition Zrotation Xrotation Yrotation
				End Site
				{
					OFFSET 0.000000 -7.922699 0.000000
				}
			}
		}
	}
}
MOTION
Frames: 5
Frame Time: 0.041667
-39.375511 -45.877296 42.233902 4701.712509 13.341584 11.548451 -0.779999 1.005804 5.403094 -26.373787 -15.427787 -4.424685 0.000000 -0.000001 4.236803 19.939129 0.554378 1.446899 -0.000009 -0.000001 9.874392 -60.231122 10.707474 -1.832248 0.000001 0.000009 2.173897 -2.610642 -1.825085 -6.153757 2.681597 -0.377598 5.432490 -17.003705 11.368870 -17.156844 5.161503 0.000006 -0.000001 168.392249 -191.697961 152.476474 0.000000 0.000002 -10.869094 2.207719 -22.640808 30.698056 0.000002 0.000002 -13.344795 -24.798605 6.402484 -73.037487 -2.381903 -1.419601 6.136585 -12.706552 -14.117571 3.748982 -4.550510 0.000001 0.000011 -1199.721853 -503.472587 -390.476779 0.000006 -0.000004 -11.106509 686.111080 -25.526106 704.614828 -0.000002 -0.000002 -12.874297 -378.916356 -2.068366 20.555284 2.431898 0.469608 -2.489400 -262.500180 -51.947885 55.552261 -0.000003 -0.000006 -18.200201 215.824866 12.519664 121.291169 0.000003 -0.000002 -16.279903 14.596418 31.199942 23.724129 -1.987999 -0.073499 -2.713004 -18.436269 -20.305642 -21.608685 -0.000005 -0.000004 -19.547798 -1628.638390 138.847432 -178.743879 -0.000006 0.000000 -14.881197 1979.680170 155.362147 -515.543061
-39.359291 -45.883797 42.243004 4701.727809 13.376702 11.490659 -0.779992 1.005805 5.403097 -26.390061 -15.514169 -4.414825 0.000001 0.000002 4.236802 19.964829 0.558728 1.446583 0.000000 0.000002 9.874401 -60.239700 10.748594 -1.863953 0.000005 0.000001 2.173897 -2.587348 -1.860042 -6.132953 2.681600 -0.377603 5.432499 -16.982010 11.386119 -17.240000 5.161509 0.000004 -0.000004 168.207465 -191.744788 152.530910 0.000000 0.000003 -10.869101 1.365420 -22.848231 30.290369 0.000001 0.000001 -13.344793 -25.671886 6.677899 -73.509972 -2.381896 -1.419600 6.136595 -12.820806 -14.139854 3.583819 -4.550506 -0.000001 0.000010 -1199.706445 -503.627769 -390.478063 0.000001 -0.000004 -11.106497 686.009775 -25.473766 704.667939 0.000004 0.000001 -12.874290 -378.900591 -2.085357 20.580951 2.431898 0.469604 -2.489399 -262.494606 -51.853102 55.522717 -0.000005 -0.000004 -18.200203 215.792928 12.489988 121.278232 -0.000002 0.000001 -16.279909 14.579570 31.159617 23.802934 -1.987998 -0.073499 -2.713002 -18.279302 -20.344992 -21.492718 0.000000 -0.000008 -19.547800 -1628.600797 138.928302 -178.836919 -0.000003 0.000002 -14.881192 1979.554276 155.320537 -515.579343
-39.342804 -45.889194 42.251713 4701.731743 13.447956 11.441937 -0.779988 1.005797 5.403092 -26.408556 -15.637860 -4.448376 0.000006 -0.000003 4.236805 19.987505 0.571771 1.447574 0.000003 -0.000002 9.874405 -60.250260 10.787768 -1.876606 0.000000 0.000007 2.173884 -2.582428 -1.881030 -6.127332 2.681602 -0.377605 5.432504 -16.982912 11.423691 -17.280061 5.161506 0.000001 -0.000001 168.077828 -191.770757 152.558477 0.000003 0.000004 -10.869096 0.374482 -23.083714 29.777989 0.000004 -0.000003 -13.344793 -26.557377 6.885390 -74.120878 -2.381896 -1.419605 6.136599 -12.939026 -14.165916 3.425566 -4.550503 -0.000003 0.000008 -1199.810591 -503.835734 -390.562156 0.000003 0.000000 -11.106507 685.881258 -25.423291 704.763726 0.000001 -0.000002 -12.874294 -378.944633 -2.131008 20.525343 2.431900 0.469599 -2.489395 -262.440648 -51.760847 55.558408 0.000009 -0.000002 -18.200207 215.762220 12.450479 121.273356 -0.000000 -0.000001 -16.279896 14.568766 31.099965 23.898087 -1.987991 -0.073497 -2.713005 -18.137736 -20.418521 -21.390192 0.000001 0.000006 -19.547798 -1628.596644 139.006985 -178.917543 -0.000003 -0.000001 -14.881193 1979.477341 155.284720 -515.612183
-39.324516 -45.894295 42.261208 4701.733055 13.525556 11.393174 -0.779988 1.005803 5.403090 -26.426489 -15.772551 -4.507602 -0.000003 -0.000002 4.236801 20.003170 0.589019 1.449260 -0.000002 0.000003 9.874393 -60.242678 10.817845 -1.873336 -0.000001 0.000000 2.173898 -2.602540 -1.891994 -6.134338 2.681605 -0.377592 5.432498 -17.005187 11.486434 -17.267936 5.161507 0.000001 -0.000000 168.007108 -191.770456 152.555950 -0.000003 0.000005 -10.869091 -0.710146 -23.307274 29.156561 0.000005 -0.000002 -13.344797 -27.561430 7.143012 -74.667006 -2.381896 -1.419598 6.136589 -13.033547 -14.173840 3.289434 -4.550505 -0.000004 0.000011 -1200.064019 -504.092331 -390.720534 0.000002 0.000000 -11.106509 685.740556 -25.379071 704.914209 0.000004 0.000004 -12.874302 -379.049380 -2.217341 20.480228 2.431904 0.469610 -2.489399 -262.396798 -51.671648 55.595595 -0.000003 -0.000004 -18.200199 215.735664 12.420188 121.278055 -0.000004 -0.000005 -16.279907 14.556431 31.030502 23.992921 -1.987999 -0.073499 -2.713001 -18.017141 -20.494353 -21.282769 0.000000 0.000000 -19.547800 -1628.650411 139.084549 -178.971338 0.000000 0.000001 -14.881199 1979.473407 155.253369 -515.632400
-39.303497 -45.900299 42.271500 4701.734803 13.596725 11.347906 -0.780003 1.005793 5.403099 -26.443818 -15.906213 -4.590614 0.000004 0.000008 4.236798 20.009869 0.612369 1.452032 0.000004 0.000000 9.874397 -60.209914 10.834336 -1.858823 0.000001 -0.000000 2.173892 -2.642857 -1.895799 -6.145514 2.681602 -0.377595 5.432498 -17.039271 11.565092 -17.215511 5.161503 0.000010 -0.000003 167.985538 -191.744529 152.527768 0.000006 -0.000001 -10.869090 -1.790323 -23.480602 28.463965 0.000005 0.000009 -13.344784 -28.823074 7.955661 -74.803132 -2.381895 -1.419602 6.136593 -13.092579 -14.168010 3.200490 -4.550508 -0.000002 0.000002 -1200.478748 -504.372642 -390.962296 -0.000000 0.000002 -11.106508 685.598980 -25.351941 705.102776 0.000002 -0.000006 -12.874303 -379.186585 -2.320636 20.380533 2.431892 0.469597 -2.489392 -262.434883 -51.617580 55.570375 -0.000004 -0.000010 -18.200199 215.739407 12.440621 121.293914 0.000005 -0.000002 -16.279900 14.537487 30.915595 24.169564 -1.988007 -0.073503 -2.712996 -17.907311 -20.556832 -21.162440 -0.000005 0.000001 -19.547791 -1628.755542 139.162495 -179.008917 -0.000006 -0.000003 -14.881197 1979.541381 155.229696 -515.653000
